<?xml version="1.0" encoding="UTF-8" standalone="no"?><svg xmlns="http://www.w3.org/2000/svg" xmlns:xlink="http://www.w3.org/1999/xlink" contentScriptType="application/ecmascript" contentStyleType="text/css" height="1009px" preserveAspectRatio="none" style="width:845px;height:1009px;" version="1.1" viewBox="0 0 845 1009" width="845px" zoomAndPan="magnify"><defs><filter height="300%" id="fak94ckphspfr" width="300%" x="-1" y="-1"><feGaussianBlur result="blurOut" stdDeviation="2.0"/><feColorMatrix in="blurOut" result="blurOut2" type="matrix" values="0 0 0 0 0 0 0 0 0 0 0 0 0 0 0 0 0 0 .4 0"/><feOffset dx="4.0" dy="4.0" in="blurOut2" result="blurOut3"/><feBlend in="SourceGraphic" in2="blurOut3" mode="normal"/></filter></defs><g><rect fill="#FFFFFF" filter="url(#fak94ckphspfr)" height="423.8594" style="stroke: #A80036; stroke-width: 1.0;" width="10" x="37" y="473.6953"/><rect fill="#FFFFFF" filter="url(#fak94ckphspfr)" height="291.3281" style="stroke: #FFFFFF; stroke-width: 1.0;" width="10" x="94.5" y="96.2969"/><line style="stroke: #A80036; stroke-width: 1.0;" x1="94.5" x2="94.5" y1="96.2969" y2="387.625"/><line style="stroke: #A80036; stroke-width: 1.0;" x1="104.5" x2="104.5" y1="96.2969" y2="387.625"/><line style="stroke: #A80036; stroke-width: 1.0;" x1="94.5" x2="104.5" y1="96.2969" y2="96.2969"/><rect fill="#FFFFFF" filter="url(#fak94ckphspfr)" height="485.125" style="stroke: #FFFFFF; stroke-width: 1.0;" width="10" x="94.5" y="428.4297"/><line style="stroke: #A80036; stroke-width: 1.0;" x1="94.5" x2="94.5" y1="428.4297" y2="913.5547"/><line style="stroke: #A80036; stroke-width: 1.0;" x1="104.5" x2="104.5" y1="428.4297" y2="913.5547"/><rect fill="#FFFFFF" filter="url(#fak94ckphspfr)" height="241.0625" style="stroke: #FFFFFF; stroke-width: 1.0;" width="10" x="165.5" y="146.5625"/><line style="stroke: #A80036; stroke-width: 1.0;" x1="165.5" x2="165.5" y1="146.5625" y2="387.625"/><line style="stroke: #A80036; stroke-width: 1.0;" x1="175.5" x2="175.5" y1="146.5625" y2="387.625"/><line style="stroke: #A80036; stroke-width: 1.0;" x1="165.5" x2="175.5" y1="146.5625" y2="146.5625"/><rect fill="#FFFFFF" filter="url(#fak94ckphspfr)" height="485.125" style="stroke: #FFFFFF; stroke-width: 1.0;" width="10" x="165.5" y="428.4297"/><line style="stroke: #A80036; stroke-width: 1.0;" x1="165.5" x2="165.5" y1="428.4297" y2="913.5547"/><line style="stroke: #A80036; stroke-width: 1.0;" x1="175.5" x2="175.5" y1="428.4297" y2="913.5547"/><rect fill="#FFFFFF" filter="url(#fak94ckphspfr)" height="211.9297" style="stroke: #FFFFFF; stroke-width: 1.0;" width="10" x="315.5" y="175.6953"/><line style="stroke: #A80036; stroke-width: 1.0;" x1="315.5" x2="315.5" y1="175.6953" y2="387.625"/><line style="stroke: #A80036; stroke-width: 1.0;" x1="325.5" x2="325.5" y1="175.6953" y2="387.625"/><line style="stroke: #A80036; stroke-width: 1.0;" x1="315.5" x2="325.5" y1="175.6953" y2="175.6953"/><rect fill="#FFFFFF" filter="url(#fak94ckphspfr)" height="485.125" style="stroke: #FFFFFF; stroke-width: 1.0;" width="10" x="315.5" y="428.4297"/><line style="stroke: #A80036; stroke-width: 1.0;" x1="315.5" x2="315.5" y1="428.4297" y2="913.5547"/><line style="stroke: #A80036; stroke-width: 1.0;" x1="325.5" x2="325.5" y1="428.4297" y2="913.5547"/><rect fill="#FFFFFF" filter="url(#fak94ckphspfr)" height="182.7969" style="stroke: #FFFFFF; stroke-width: 1.0;" width="10" x="525.5" y="204.8281"/><line style="stroke: #A80036; stroke-width: 1.0;" x1="525.5" x2="525.5" y1="204.8281" y2="387.625"/><line style="stroke: #A80036; stroke-width: 1.0;" x1="535.5" x2="535.5" y1="204.8281" y2="387.625"/><line style="stroke: #A80036; stroke-width: 1.0;" x1="525.5" x2="535.5" y1="204.8281" y2="204.8281"/><rect fill="#FFFFFF" filter="url(#fak94ckphspfr)" height="485.125" style="stroke: #FFFFFF; stroke-width: 1.0;" width="10" x="525.5" y="428.4297"/><line style="stroke: #A80036; stroke-width: 1.0;" x1="525.5" x2="525.5" y1="428.4297" y2="913.5547"/><line style="stroke: #A80036; stroke-width: 1.0;" x1="535.5" x2="535.5" y1="428.4297" y2="913.5547"/><rect fill="#FFFFFF" filter="url(#fak94ckphspfr)" height="124.5313" style="stroke: #FFFFFF; stroke-width: 1.0;" width="10" x="596" y="263.0938"/><line style="stroke: #A80036; stroke-width: 1.0;" x1="596" x2="596" y1="263.0938" y2="387.625"/><line style="stroke: #A80036; stroke-width: 1.0;" x1="606" x2="606" y1="263.0938" y2="387.625"/><line style="stroke: #A80036; stroke-width: 1.0;" x1="596" x2="606" y1="263.0938" y2="263.0938"/><rect fill="#FFFFFF" filter="url(#fak94ckphspfr)" height="485.125" style="stroke: #FFFFFF; stroke-width: 1.0;" width="10" x="596" y="428.4297"/><line style="stroke: #A80036; stroke-width: 1.0;" x1="596" x2="596" y1="428.4297" y2="913.5547"/><line style="stroke: #A80036; stroke-width: 1.0;" x1="606" x2="606" y1="428.4297" y2="913.5547"/><rect fill="#FFFFFF" filter="url(#fak94ckphspfr)" height="66.2656" style="stroke: #FFFFFF; stroke-width: 1.0;" width="10" x="658.5" y="321.3594"/><line style="stroke: #A80036; stroke-width: 1.0;" x1="658.5" x2="658.5" y1="321.3594" y2="387.625"/><line style="stroke: #A80036; stroke-width: 1.0;" x1="668.5" x2="668.5" y1="321.3594" y2="387.625"/><line style="stroke: #A80036; stroke-width: 1.0;" x1="658.5" x2="668.5" y1="321.3594" y2="321.3594"/><rect fill="#FFFFFF" filter="url(#fak94ckphspfr)" height="485.125" style="stroke: #FFFFFF; stroke-width: 1.0;" width="10" x="658.5" y="428.4297"/><line style="stroke: #A80036; stroke-width: 1.0;" x1="658.5" x2="658.5" y1="428.4297" y2="913.5547"/><line style="stroke: #A80036; stroke-width: 1.0;" x1="668.5" x2="668.5" y1="428.4297" y2="913.5547"/><rect fill="#FFFFFF" filter="url(#fak94ckphspfr)" height="270.1953" style="stroke: #FFFFFF; stroke-width: 1.0;" width="10" x="753" y="117.4297"/><line style="stroke: #A80036; stroke-width: 1.0;" x1="753" x2="753" y1="117.4297" y2="387.625"/><line style="stroke: #A80036; stroke-width: 1.0;" x1="763" x2="763" y1="117.4297" y2="387.625"/><line style="stroke: #A80036; stroke-width: 1.0;" x1="753" x2="763" y1="117.4297" y2="117.4297"/><rect fill="#FFFFFF" filter="url(#fak94ckphspfr)" height="485.125" style="stroke: #FFFFFF; stroke-width: 1.0;" width="10" x="753" y="428.4297"/><line style="stroke: #A80036; stroke-width: 1.0;" x1="753" x2="753" y1="428.4297" y2="913.5547"/><line style="stroke: #A80036; stroke-width: 1.0;" x1="763" x2="763" y1="428.4297" y2="913.5547"/><rect fill="#FFFFFF" filter="url(#fak94ckphspfr)" height="470.125" style="stroke: #000000; stroke-width: 2.0;" width="821" x="13" y="435.4297"/><rect fill="#FFFFFF" filter="url(#fak94ckphspfr)" height="139.6641" style="stroke: #000000; stroke-width: 2.0;" width="692" x="132" y="488.6953"/><rect fill="#FFFFFF" height="31.1328" style="stroke: none; stroke-width: 1.0;" width="692" x="132" y="534.9609"/><rect fill="#FFFFFF" height="31.1328" style="stroke: none; stroke-width: 1.0;" width="692" x="132" y="566.0938"/><rect fill="#FFFFFF" height="31.1328" style="stroke: none; stroke-width: 1.0;" width="692" x="132" y="597.2266"/><rect fill="#FFFFFF" filter="url(#fak94ckphspfr)" height="227.0625" style="stroke: #000000; stroke-width: 2.0;" width="692" x="132" y="642.3594"/><rect fill="#FFFFFF" height="31.1328" style="stroke: none; stroke-width: 1.0;" width="692" x="132" y="688.625"/><rect fill="#FFFFFF" height="31.1328" style="stroke: none; stroke-width: 1.0;" width="692" x="132" y="719.7578"/><rect fill="#FFFFFF" height="118.5313" style="stroke: none; stroke-width: 1.0;" width="692" x="132" y="750.8906"/><line style="stroke: #A80036; stroke-width: 1.0;" x1="42" x2="42" y1="86.2969" y2="387.625"/><line style="stroke: #A80036; stroke-width: 1.0; stroke-dasharray: 1.0,4.0;" x1="42" x2="42" y1="387.625" y2="428.4297"/><line style="stroke: #A80036; stroke-width: 1.0;" x1="42" x2="42" y1="428.4297" y2="922.5547"/><line style="stroke: #A80036; stroke-width: 1.0;" x1="99" x2="99" y1="86.2969" y2="387.625"/><line style="stroke: #A80036; stroke-width: 1.0; stroke-dasharray: 1.0,4.0;" x1="99" x2="99" y1="387.625" y2="428.4297"/><line style="stroke: #A80036; stroke-width: 1.0;" x1="99" x2="99" y1="428.4297" y2="922.5547"/><line style="stroke: #A80036; stroke-width: 1.0;" x1="170" x2="170" y1="86.2969" y2="387.625"/><line style="stroke: #A80036; stroke-width: 1.0; stroke-dasharray: 1.0,4.0;" x1="170" x2="170" y1="387.625" y2="428.4297"/><line style="stroke: #A80036; stroke-width: 1.0;" x1="170" x2="170" y1="428.4297" y2="922.5547"/><line style="stroke: #A80036; stroke-width: 1.0;" x1="320.5" x2="320.5" y1="86.2969" y2="387.625"/><line style="stroke: #A80036; stroke-width: 1.0; stroke-dasharray: 1.0,4.0;" x1="320.5" x2="320.5" y1="387.625" y2="428.4297"/><line style="stroke: #A80036; stroke-width: 1.0;" x1="320.5" x2="320.5" y1="428.4297" y2="922.5547"/><line style="stroke: #A80036; stroke-width: 1.0;" x1="530" x2="530" y1="86.2969" y2="387.625"/><line style="stroke: #A80036; stroke-width: 1.0; stroke-dasharray: 1.0,4.0;" x1="530" x2="530" y1="387.625" y2="428.4297"/><line style="stroke: #A80036; stroke-width: 1.0;" x1="530" x2="530" y1="428.4297" y2="922.5547"/><line style="stroke: #A80036; stroke-width: 1.0;" x1="601" x2="601" y1="86.2969" y2="387.625"/><line style="stroke: #A80036; stroke-width: 1.0; stroke-dasharray: 1.0,4.0;" x1="601" x2="601" y1="387.625" y2="428.4297"/><line style="stroke: #A80036; stroke-width: 1.0;" x1="601" x2="601" y1="428.4297" y2="922.5547"/><line style="stroke: #A80036; stroke-width: 1.0;" x1="663" x2="663" y1="86.2969" y2="387.625"/><line style="stroke: #A80036; stroke-width: 1.0; stroke-dasharray: 1.0,4.0;" x1="663" x2="663" y1="387.625" y2="428.4297"/><line style="stroke: #A80036; stroke-width: 1.0;" x1="663" x2="663" y1="428.4297" y2="922.5547"/><line style="stroke: #A80036; stroke-width: 1.0;" x1="758" x2="758" y1="86.2969" y2="387.625"/><line style="stroke: #A80036; stroke-width: 1.0; stroke-dasharray: 1.0,4.0;" x1="758" x2="758" y1="387.625" y2="428.4297"/><line style="stroke: #A80036; stroke-width: 1.0;" x1="758" x2="758" y1="428.4297" y2="922.5547"/><text fill="#000000" font-family="sans-serif" font-size="14" lengthAdjust="spacingAndGlyphs" textLength="32" x="23" y="82.9951">User</text><ellipse cx="42" cy="13" fill="#FEFECE" filter="url(#fak94ckphspfr)" rx="8" ry="8" style="stroke: #A80036; stroke-width: 2.0;"/><path d="M42,21 L42,48 M29,29 L55,29 M42,48 L29,63 M42,48 L55,63 " fill="none" filter="url(#fak94ckphspfr)" style="stroke: #A80036; stroke-width: 2.0;"/><text fill="#000000" font-family="sans-serif" font-size="14" lengthAdjust="spacingAndGlyphs" textLength="32" x="23" y="934.5498">User</text><ellipse cx="42" cy="947.8516" fill="#FEFECE" filter="url(#fak94ckphspfr)" rx="8" ry="8" style="stroke: #A80036; stroke-width: 2.0;"/><path d="M42,955.8516 L42,982.8516 M29,963.8516 L55,963.8516 M42,982.8516 L29,997.8516 M42,982.8516 L55,997.8516 " fill="none" filter="url(#fak94ckphspfr)" style="stroke: #A80036; stroke-width: 2.0;"/><text fill="#000000" font-family="sans-serif" font-size="14" lengthAdjust="spacingAndGlyphs" textLength="51" x="71" y="82.9951">System</text><ellipse cx="99.5" cy="13" fill="#FEFECE" filter="url(#fak94ckphspfr)" rx="8" ry="8" style="stroke: #A80036; stroke-width: 2.0;"/><path d="M99.5,21 L99.5,48 M86.5,29 L112.5,29 M99.5,48 L86.5,63 M99.5,48 L112.5,63 " fill="none" filter="url(#fak94ckphspfr)" style="stroke: #A80036; stroke-width: 2.0;"/><text fill="#000000" font-family="sans-serif" font-size="14" lengthAdjust="spacingAndGlyphs" textLength="51" x="71" y="934.5498">System</text><ellipse cx="99.5" cy="947.8516" fill="#FEFECE" filter="url(#fak94ckphspfr)" rx="8" ry="8" style="stroke: #A80036; stroke-width: 2.0;"/><path d="M99.5,955.8516 L99.5,982.8516 M86.5,963.8516 L112.5,963.8516 M99.5,982.8516 L86.5,997.8516 M99.5,982.8516 L112.5,997.8516 " fill="none" filter="url(#fak94ckphspfr)" style="stroke: #A80036; stroke-width: 2.0;"/><rect fill="#FEFECE" filter="url(#fak94ckphspfr)" height="30.2969" style="stroke: #A80036; stroke-width: 1.5;" width="53" x="142" y="51"/><text fill="#000000" font-family="sans-serif" font-size="14" lengthAdjust="spacingAndGlyphs" textLength="39" x="149" y="70.9951">Souin</text><rect fill="#FEFECE" filter="url(#fak94ckphspfr)" height="30.2969" style="stroke: #A80036; stroke-width: 1.5;" width="53" x="142" y="921.5547"/><text fill="#000000" font-family="sans-serif" font-size="14" lengthAdjust="spacingAndGlyphs" textLength="39" x="149" y="941.5498">Souin</text><rect fill="#FEFECE" filter="url(#fak94ckphspfr)" height="30.2969" style="stroke: #A80036; stroke-width: 1.5;" width="78" x="281.5" y="47"/><rect fill="#FEFECE" filter="url(#fak94ckphspfr)" height="30.2969" style="stroke: #A80036; stroke-width: 1.5;" width="78" x="277.5" y="51"/><text fill="#000000" font-family="sans-serif" font-size="14" lengthAdjust="spacingAndGlyphs" textLength="64" x="284.5" y="70.9951">Providers</text><rect fill="#FEFECE" filter="url(#fak94ckphspfr)" height="30.2969" style="stroke: #A80036; stroke-width: 1.5;" width="78" x="281.5" y="921.5547"/><rect fill="#FEFECE" filter="url(#fak94ckphspfr)" height="30.2969" style="stroke: #A80036; stroke-width: 1.5;" width="78" x="277.5" y="925.5547"/><text fill="#000000" font-family="sans-serif" font-size="14" lengthAdjust="spacingAndGlyphs" textLength="64" x="284.5" y="945.5498">Providers</text><rect fill="#FEFECE" filter="url(#fak94ckphspfr)" height="30.2969" style="stroke: #A80036; stroke-width: 1.5;" width="69" x="494" y="51"/><text fill="#000000" font-family="sans-serif" font-size="14" lengthAdjust="spacingAndGlyphs" textLength="55" x="501" y="70.9951">Memory</text><rect fill="#FEFECE" filter="url(#fak94ckphspfr)" height="30.2969" style="stroke: #A80036; stroke-width: 1.5;" width="69" x="494" y="921.5547"/><text fill="#000000" font-family="sans-serif" font-size="14" lengthAdjust="spacingAndGlyphs" textLength="55" x="501" y="941.5498">Memory</text><rect fill="#FEFECE" filter="url(#fak94ckphspfr)" height="30.2969" style="stroke: #A80036; stroke-width: 1.5;" width="44" x="577" y="51"/><text fill="#000000" font-family="sans-serif" font-size="14" lengthAdjust="spacingAndGlyphs" textLength="30" x="584" y="70.9951">Olric</text><rect fill="#FEFECE" filter="url(#fak94ckphspfr)" height="30.2969" style="stroke: #A80036; stroke-width: 1.5;" width="44" x="577" y="921.5547"/><text fill="#000000" font-family="sans-serif" font-size="14" lengthAdjust="spacingAndGlyphs" textLength="30" x="584" y="941.5498">Olric</text><rect fill="#FEFECE" filter="url(#fak94ckphspfr)" height="30.2969" style="stroke: #A80036; stroke-width: 1.5;" width="53" x="635" y="51"/><text fill="#000000" font-family="sans-serif" font-size="14" lengthAdjust="spacingAndGlyphs" textLength="39" x="642" y="70.9951">Redis</text><rect fill="#FEFECE" filter="url(#fak94ckphspfr)" height="30.2969" style="stroke: #A80036; stroke-width: 1.5;" width="53" x="635" y="921.5547"/><text fill="#000000" font-family="sans-serif" font-size="14" lengthAdjust="spacingAndGlyphs" textLength="39" x="642" y="941.5498">Redis</text><rect fill="#FEFECE" filter="url(#fak94ckphspfr)" height="30.2969" style="stroke: #A80036; stroke-width: 1.5;" width="108" x="702" y="51"/><text fill="#000000" font-family="sans-serif" font-size="14" lengthAdjust="spacingAndGlyphs" textLength="94" x="709" y="70.9951">ReverseProxy</text><rect fill="#FEFECE" filter="url(#fak94ckphspfr)" height="30.2969" style="stroke: #A80036; stroke-width: 1.5;" width="108" x="702" y="921.5547"/><text fill="#000000" font-family="sans-serif" font-size="14" lengthAdjust="spacingAndGlyphs" textLength="94" x="709" y="941.5498">ReverseProxy</text><rect fill="#FFFFFF" filter="url(#fak94ckphspfr)" height="423.8594" style="stroke: #A80036; stroke-width: 1.0;" width="10" x="37" y="473.6953"/><rect fill="#FFFFFF" filter="url(#fak94ckphspfr)" height="291.3281" style="stroke: #FFFFFF; stroke-width: 1.0;" width="10" x="94.5" y="96.2969"/><line style="stroke: #A80036; stroke-width: 1.0;" x1="94.5" x2="94.5" y1="96.2969" y2="387.625"/><line style="stroke: #A80036; stroke-width: 1.0;" x1="104.5" x2="104.5" y1="96.2969" y2="387.625"/><line style="stroke: #A80036; stroke-width: 1.0;" x1="94.5" x2="104.5" y1="96.2969" y2="96.2969"/><rect fill="#FFFFFF" filter="url(#fak94ckphspfr)" height="485.125" style="stroke: #FFFFFF; stroke-width: 1.0;" width="10" x="94.5" y="428.4297"/><line style="stroke: #A80036; stroke-width: 1.0;" x1="94.5" x2="94.5" y1="428.4297" y2="913.5547"/><line style="stroke: #A80036; stroke-width: 1.0;" x1="104.5" x2="104.5" y1="428.4297" y2="913.5547"/><rect fill="#FFFFFF" filter="url(#fak94ckphspfr)" height="241.0625" style="stroke: #FFFFFF; stroke-width: 1.0;" width="10" x="165.5" y="146.5625"/><line style="stroke: #A80036; stroke-width: 1.0;" x1="165.5" x2="165.5" y1="146.5625" y2="387.625"/><line style="stroke: #A80036; stroke-width: 1.0;" x1="175.5" x2="175.5" y1="146.5625" y2="387.625"/><line style="stroke: #A80036; stroke-width: 1.0;" x1="165.5" x2="175.5" y1="146.5625" y2="146.5625"/><rect fill="#FFFFFF" filter="url(#fak94ckphspfr)" height="485.125" style="stroke: #FFFFFF; stroke-width: 1.0;" width="10" x="165.5" y="428.4297"/><line style="stroke: #A80036; stroke-width: 1.0;" x1="165.5" x2="165.5" y1="428.4297" y2="913.5547"/><line style="stroke: #A80036; stroke-width: 1.0;" x1="175.5" x2="175.5" y1="428.4297" y2="913.5547"/><rect fill="#FFFFFF" filter="url(#fak94ckphspfr)" height="211.9297" style="stroke: #FFFFFF; stroke-width: 1.0;" width="10" x="315.5" y="175.6953"/><line style="stroke: #A80036; stroke-width: 1.0;" x1="315.5" x2="315.5" y1="175.6953" y2="387.625"/><line style="stroke: #A80036; stroke-width: 1.0;" x1="325.5" x2="325.5" y1="175.6953" y2="387.625"/><line style="stroke: #A80036; stroke-width: 1.0;" x1="315.5" x2="325.5" y1="175.6953" y2="175.6953"/><rect fill="#FFFFFF" filter="url(#fak94ckphspfr)" height="485.125" style="stroke: #FFFFFF; stroke-width: 1.0;" width="10" x="315.5" y="428.4297"/><line style="stroke: #A80036; stroke-width: 1.0;" x1="315.5" x2="315.5" y1="428.4297" y2="913.5547"/><line style="stroke: #A80036; stroke-width: 1.0;" x1="325.5" x2="325.5" y1="428.4297" y2="913.5547"/><rect fill="#FFFFFF" filter="url(#fak94ckphspfr)" height="182.7969" style="stroke: #FFFFFF; stroke-width: 1.0;" width="10" x="525.5" y="204.8281"/><line style="stroke: #A80036; stroke-width: 1.0;" x1="525.5" x2="525.5" y1="204.8281" y2="387.625"/><line style="stroke: #A80036; stroke-width: 1.0;" x1="535.5" x2="535.5" y1="204.8281" y2="387.625"/><line style="stroke: #A80036; stroke-width: 1.0;" x1="525.5" x2="535.5" y1="204.8281" y2="204.8281"/><rect fill="#FFFFFF" filter="url(#fak94ckphspfr)" height="485.125" style="stroke: #FFFFFF; stroke-width: 1.0;" width="10" x="525.5" y="428.4297"/><line style="stroke: #A80036; stroke-width: 1.0;" x1="525.5" x2="525.5" y1="428.4297" y2="913.5547"/><line style="stroke: #A80036; stroke-width: 1.0;" x1="535.5" x2="535.5" y1="428.4297" y2="913.5547"/><rect fill="#FFFFFF" filter="url(#fak94ckphspfr)" height="124.5313" style="stroke: #FFFFFF; stroke-width: 1.0;" width="10" x="596" y="263.0938"/><line style="stroke: #A80036; stroke-width: 1.0;" x1="596" x2="596" y1="263.0938" y2="387.625"/><line style="stroke: #A80036; stroke-width: 1.0;" x1="606" x2="606" y1="263.0938" y2="387.625"/><line style="stroke: #A80036; stroke-width: 1.0;" x1="596" x2="606" y1="263.0938" y2="263.0938"/><rect fill="#FFFFFF" filter="url(#fak94ckphspfr)" height="485.125" style="stroke: #FFFFFF; stroke-width: 1.0;" width="10" x="596" y="428.4297"/><line style="stroke: #A80036; stroke-width: 1.0;" x1="596" x2="596" y1="428.4297" y2="913.5547"/><line style="stroke: #A80036; stroke-width: 1.0;" x1="606" x2="606" y1="428.4297" y2="913.5547"/><rect fill="#FFFFFF" filter="url(#fak94ckphspfr)" height="66.2656" style="stroke: #FFFFFF; stroke-width: 1.0;" width="10" x="658.5" y="321.3594"/><line style="stroke: #A80036; stroke-width: 1.0;" x1="658.5" x2="658.5" y1="321.3594" y2="387.625"/><line style="stroke: #A80036; stroke-width: 1.0;" x1="668.5" x2="668.5" y1="321.3594" y2="387.625"/><line style="stroke: #A80036; stroke-width: 1.0;" x1="658.5" x2="668.5" y1="321.3594" y2="321.3594"/><rect fill="#FFFFFF" filter="url(#fak94ckphspfr)" height="485.125" style="stroke: #FFFFFF; stroke-width: 1.0;" width="10" x="658.5" y="428.4297"/><line style="stroke: #A80036; stroke-width: 1.0;" x1="658.5" x2="658.5" y1="428.4297" y2="913.5547"/><line style="stroke: #A80036; stroke-width: 1.0;" x1="668.5" x2="668.5" y1="428.4297" y2="913.5547"/><rect fill="#FFFFFF" filter="url(#fak94ckphspfr)" height="270.1953" style="stroke: #FFFFFF; stroke-width: 1.0;" width="10" x="753" y="117.4297"/><line style="stroke: #A80036; stroke-width: 1.0;" x1="753" x2="753" y1="117.4297" y2="387.625"/><line style="stroke: #A80036; stroke-width: 1.0;" x1="763" x2="763" y1="117.4297" y2="387.625"/><line style="stroke: #A80036; stroke-width: 1.0;" x1="753" x2="763" y1="117.4297" y2="117.4297"/><rect fill="#FFFFFF" filter="url(#fak94ckphspfr)" height="485.125" style="stroke: #FFFFFF; stroke-width: 1.0;" width="10" x="753" y="428.4297"/><line style="stroke: #A80036; stroke-width: 1.0;" x1="753" x2="753" y1="428.4297" y2="913.5547"/><line style="stroke: #A80036; stroke-width: 1.0;" x1="763" x2="763" y1="428.4297" y2="913.5547"/><polygon fill="#A80036" points="741,113.4297,751,117.4297,741,121.4297,745,117.4297" style="stroke: #A80036; stroke-width: 1.0;"/><line style="stroke: #A80036; stroke-width: 1.0;" x1="104.5" x2="747" y1="117.4297" y2="117.4297"/><text fill="#000000" font-family="sans-serif" font-size="13" lengthAdjust="spacingAndGlyphs" textLength="31" x="111.5" y="112.3638">run()</text><polygon fill="#A80036" points="153.5,142.5625,163.5,146.5625,153.5,150.5625,157.5,146.5625" style="stroke: #A80036; stroke-width: 1.0;"/><line style="stroke: #A80036; stroke-width: 1.0;" x1="104.5" x2="159.5" y1="146.5625" y2="146.5625"/><text fill="#000000" font-family="sans-serif" font-size="13" lengthAdjust="spacingAndGlyphs" textLength="42" x="111.5" y="141.4966">main()</text><polygon fill="#A80036" points="303.5,171.6953,313.5,175.6953,303.5,179.6953,307.5,175.6953" style="stroke: #A80036; stroke-width: 1.0;"/><line style="stroke: #A80036; stroke-width: 1.0;" x1="175.5" x2="309.5" y1="175.6953" y2="175.6953"/><text fill="#000000" font-family="sans-serif" font-size="13" lengthAdjust="spacingAndGlyphs" textLength="29" x="182.5" y="170.6294">Init()</text><polygon fill="#A80036" points="513.5,200.8281,523.5,204.8281,513.5,208.8281,517.5,204.8281" style="stroke: #A80036; stroke-width: 1.0;"/><line style="stroke: #A80036; stroke-width: 1.0;" x1="325.5" x2="519.5" y1="204.8281" y2="204.8281"/><text fill="#000000" font-family="sans-serif" font-size="13" lengthAdjust="spacingAndGlyphs" textLength="181" x="332.5" y="199.7622">MemoryConnectionFactory()</text><polygon fill="#A80036" points="336.5,229.9609,326.5,233.9609,336.5,237.9609,332.5,233.9609" style="stroke: #A80036; stroke-width: 1.0;"/><line style="stroke: #A80036; stroke-width: 1.0; stroke-dasharray: 2.0,2.0;" x1="330.5" x2="524.5" y1="233.9609" y2="233.9609"/><ellipse cx="348" cy="224.4609" fill="#000000" rx="2.5" ry="2.5" style="stroke: #000000; stroke-width: 0.0;"/><text fill="#000000" font-family="sans-serif" font-size="13" lengthAdjust="spacingAndGlyphs" textLength="106" x="353.5" y="228.895">AbstractProvider</text><polygon fill="#A80036" points="584,259.0938,594,263.0938,584,267.0938,588,263.0938" style="stroke: #A80036; stroke-width: 1.0;"/><line style="stroke: #A80036; stroke-width: 1.0;" x1="325.5" x2="590" y1="263.0938" y2="263.0938"/><text fill="#000000" font-family="sans-serif" font-size="13" lengthAdjust="spacingAndGlyphs" textLength="157" x="332.5" y="258.0278">OlricConnectionFactory()</text><polygon fill="#A80036" points="336.5,288.2266,326.5,292.2266,336.5,296.2266,332.5,292.2266" style="stroke: #A80036; stroke-width: 1.0;"/><line style="stroke: #A80036; stroke-width: 1.0; stroke-dasharray: 2.0,2.0;" x1="330.5" x2="595" y1="292.2266" y2="292.2266"/><ellipse cx="348" cy="282.7266" fill="#000000" rx="2.5" ry="2.5" style="stroke: #000000; stroke-width: 0.0;"/><text fill="#000000" font-family="sans-serif" font-size="13" lengthAdjust="spacingAndGlyphs" textLength="106" x="353.5" y="287.1606">AbstractProvider</text><polygon fill="#A80036" points="646.5,317.3594,656.5,321.3594,646.5,325.3594,650.5,321.3594" style="stroke: #A80036; stroke-width: 1.0;"/><line style="stroke: #A80036; stroke-width: 1.0;" x1="325.5" x2="652.5" y1="321.3594" y2="321.3594"/><text fill="#000000" font-family="sans-serif" font-size="13" lengthAdjust="spacingAndGlyphs" textLength="163" x="332.5" y="316.2935">RedisConnectionFactory()</text><polygon fill="#A80036" points="336.5,346.4922,326.5,350.4922,336.5,354.4922,332.5,350.4922" style="stroke: #A80036; stroke-width: 1.0;"/><line style="stroke: #A80036; stroke-width: 1.0; stroke-dasharray: 2.0,2.0;" x1="330.5" x2="657.5" y1="350.4922" y2="350.4922"/><ellipse cx="348" cy="340.9922" fill="#000000" rx="2.5" ry="2.5" style="stroke: #000000; stroke-width: 0.0;"/><text fill="#000000" font-family="sans-serif" font-size="13" lengthAdjust="spacingAndGlyphs" textLength="106" x="353.5" y="345.4263">AbstractProvider</text><polygon fill="#A80036" points="186.5,375.625,176.5,379.625,186.5,383.625,182.5,379.625" style="stroke: #A80036; stroke-width: 1.0;"/><line style="stroke: #A80036; stroke-width: 1.0; stroke-dasharray: 2.0,2.0;" x1="180.5" x2="314.5" y1="379.625" y2="379.625"/><text fill="#000000" font-family="sans-serif" font-size="13" lengthAdjust="spacingAndGlyphs" textLength="116" x="192.5" y="374.5591">AbstractProvider[]</text><text fill="#000000" font-family="sans-serif" font-size="11" lengthAdjust="spacingAndGlyphs" textLength="138" x="331" y="411.8354">Waiting for user request</text><path d="M13,435.4297 L90,435.4297 L90,442.4297 L80,452.4297 L13,452.4297 L13,435.4297 " fill="#EEEEEE" style="stroke: #000000; stroke-width: 1.0;"/><rect fill="none" height="470.125" style="stroke: #000000; stroke-width: 2.0;" width="821" x="13" y="435.4297"/><text fill="#000000" font-family="sans-serif" font-size="13" font-weight="bold" lengthAdjust="spacingAndGlyphs" textLength="32" x="28" y="448.4966">loop</text><text fill="#000000" font-family="sans-serif" font-size="11" font-weight="bold" lengthAdjust="spacingAndGlyphs" textLength="99" x="105" y="447.6401">[User requests]</text><polygon fill="#A80036" points="153.5,469.6953,163.5,473.6953,153.5,477.6953,157.5,473.6953" style="stroke: #A80036; stroke-width: 1.0;"/><line style="stroke: #A80036; stroke-width: 1.0;" x1="47" x2="159.5" y1="473.6953" y2="473.6953"/><text fill="#000000" font-family="sans-serif" font-size="13" lengthAdjust="spacingAndGlyphs" textLength="49" x="54" y="468.6294">request</text><path d="M132,488.6953 L202,488.6953 L202,495.6953 L192,505.6953 L132,505.6953 L132,488.6953 " fill="#EEEEEE" style="stroke: #000000; stroke-width: 1.0;"/><rect fill="none" height="139.6641" style="stroke: #000000; stroke-width: 2.0;" width="692" x="132" y="488.6953"/><text fill="#000000" font-family="sans-serif" font-size="13" font-weight="bold" lengthAdjust="spacingAndGlyphs" textLength="25" x="147" y="501.7622">par</text><text fill="#000000" font-family="sans-serif" font-size="11" font-weight="bold" lengthAdjust="spacingAndGlyphs" textLength="179" x="217" y="500.9058">[Request providers content]</text><polygon fill="#A80036" points="513.5,522.9609,523.5,526.9609,513.5,530.9609,517.5,526.9609" style="stroke: #A80036; stroke-width: 1.0;"/><line style="stroke: #A80036; stroke-width: 1.0;" x1="175.5" x2="519.5" y1="526.9609" y2="526.9609"/><text fill="#000000" font-family="sans-serif" font-size="13" lengthAdjust="spacingAndGlyphs" textLength="136" x="182.5" y="521.895">GetRequestInCache()</text><line style="stroke: #000000; stroke-width: 1.0; stroke-dasharray: 2.0,2.0;" x1="132" x2="824" y1="535.9609" y2="535.9609"/><polygon fill="#A80036" points="584,554.0938,594,558.0938,584,562.0938,588,558.0938" style="stroke: #A80036; stroke-width: 1.0;"/><line style="stroke: #A80036; stroke-width: 1.0;" x1="175.5" x2="590" y1="558.0938" y2="558.0938"/><text fill="#000000" font-family="sans-serif" font-size="13" lengthAdjust="spacingAndGlyphs" textLength="136" x="182.5" y="553.0278">GetRequestInCache()</text><line style="stroke: #000000; stroke-width: 1.0; stroke-dasharray: 2.0,2.0;" x1="132" x2="824" y1="567.0938" y2="567.0938"/><polygon fill="#A80036" points="646.5,585.2266,656.5,589.2266,646.5,593.2266,650.5,589.2266" style="stroke: #A80036; stroke-width: 1.0;"/><line style="stroke: #A80036; stroke-width: 1.0;" x1="175.5" x2="652.5" y1="589.2266" y2="589.2266"/><text fill="#000000" font-family="sans-serif" font-size="13" lengthAdjust="spacingAndGlyphs" textLength="136" x="182.5" y="584.1606">GetRequestInCache()</text><line style="stroke: #000000; stroke-width: 1.0; stroke-dasharray: 2.0,2.0;" x1="132" x2="824" y1="598.2266" y2="598.2266"/><polygon fill="#A80036" points="741,616.3594,751,620.3594,741,624.3594,745,620.3594" style="stroke: #A80036; stroke-width: 1.0;"/><line style="stroke: #A80036; stroke-width: 1.0;" x1="175.5" x2="747" y1="620.3594" y2="620.3594"/><text fill="#000000" font-family="sans-serif" font-size="13" lengthAdjust="spacingAndGlyphs" textLength="182" x="182.5" y="615.2935">GetRequestInReverseProxy()</text><path d="M132,642.3594 L202,642.3594 L202,649.3594 L192,659.3594 L132,659.3594 L132,642.3594 " fill="#EEEEEE" style="stroke: #000000; stroke-width: 1.0;"/><rect fill="none" height="227.0625" style="stroke: #000000; stroke-width: 2.0;" width="692" x="132" y="642.3594"/><text fill="#000000" font-family="sans-serif" font-size="13" font-weight="bold" lengthAdjust="spacingAndGlyphs" textLength="25" x="147" y="655.4263">par</text><text fill="#000000" font-family="sans-serif" font-size="11" font-weight="bold" lengthAdjust="spacingAndGlyphs" textLength="189" x="217" y="654.5698">[Response providers content]</text><polygon fill="#A80036" points="186.5,676.625,176.5,680.625,186.5,684.625,182.5,680.625" style="stroke: #A80036; stroke-width: 1.0;"/><line style="stroke: #A80036; stroke-width: 1.0; stroke-dasharray: 2.0,2.0;" x1="180.5" x2="524.5" y1="680.625" y2="680.625"/><ellipse cx="198" cy="671.125" fill="#000000" rx="2.5" ry="2.5" style="stroke: #000000; stroke-width: 0.0;"/><text fill="#000000" font-family="sans-serif" font-size="13" lengthAdjust="spacingAndGlyphs" textLength="62" x="203.5" y="675.5591">Response</text><line style="stroke: #000000; stroke-width: 1.0; stroke-dasharray: 2.0,2.0;" x1="132" x2="824" y1="689.625" y2="689.625"/><polygon fill="#A80036" points="186.5,707.7578,176.5,711.7578,186.5,715.7578,182.5,711.7578" style="stroke: #A80036; stroke-width: 1.0;"/><line style="stroke: #A80036; stroke-width: 1.0; stroke-dasharray: 2.0,2.0;" x1="180.5" x2="595" y1="711.7578" y2="711.7578"/><ellipse cx="198" cy="702.2578" fill="#000000" rx="2.5" ry="2.5" style="stroke: #000000; stroke-width: 0.0;"/><text fill="#000000" font-family="sans-serif" font-size="13" lengthAdjust="spacingAndGlyphs" textLength="62" x="203.5" y="706.6919">Response</text><line style="stroke: #000000; stroke-width: 1.0; stroke-dasharray: 2.0,2.0;" x1="132" x2="824" y1="720.7578" y2="720.7578"/><polygon fill="#A80036" points="186.5,738.8906,176.5,742.8906,186.5,746.8906,182.5,742.8906" style="stroke: #A80036; stroke-width: 1.0;"/><line style="stroke: #A80036; stroke-width: 1.0; stroke-dasharray: 2.0,2.0;" x1="180.5" x2="657.5" y1="742.8906" y2="742.8906"/><ellipse cx="198" cy="733.3906" fill="#000000" rx="2.5" ry="2.5" style="stroke: #000000; stroke-width: 0.0;"/><text fill="#000000" font-family="sans-serif" font-size="13" lengthAdjust="spacingAndGlyphs" textLength="62" x="203.5" y="737.8247">Response</text><line style="stroke: #000000; stroke-width: 1.0; stroke-dasharray: 2.0,2.0;" x1="132" x2="824" y1="751.8906" y2="751.8906"/><polygon fill="#A80036" points="186.5,770.0234,176.5,774.0234,186.5,778.0234,182.5,774.0234" style="stroke: #A80036; stroke-width: 1.0;"/><line style="stroke: #A80036; stroke-width: 1.0; stroke-dasharray: 2.0,2.0;" x1="180.5" x2="752" y1="774.0234" y2="774.0234"/><ellipse cx="198" cy="764.5234" fill="#000000" rx="2.5" ry="2.5" style="stroke: #000000; stroke-width: 0.0;"/><text fill="#000000" font-family="sans-serif" font-size="13" lengthAdjust="spacingAndGlyphs" textLength="62" x="203.5" y="768.9575">Response</text><polygon fill="#A80036" points="513.5,799.1563,523.5,803.1563,513.5,807.1563,517.5,803.1563" style="stroke: #A80036; stroke-width: 1.0;"/><line style="stroke: #A80036; stroke-width: 1.0;" x1="175.5" x2="519.5" y1="803.1563" y2="803.1563"/><text fill="#000000" font-family="sans-serif" font-size="13" lengthAdjust="spacingAndGlyphs" textLength="135" x="182.5" y="798.0903">SetRequestInCache()</text><polygon fill="#A80036" points="584,828.2891,594,832.2891,584,836.2891,588,832.2891" style="stroke: #A80036; stroke-width: 1.0;"/><line style="stroke: #A80036; stroke-width: 1.0;" x1="175.5" x2="590" y1="832.2891" y2="832.2891"/><text fill="#000000" font-family="sans-serif" font-size="13" lengthAdjust="spacingAndGlyphs" textLength="135" x="182.5" y="827.2231">SetRequestInCache()</text><polygon fill="#A80036" points="646.5,857.4219,656.5,861.4219,646.5,865.4219,650.5,861.4219" style="stroke: #A80036; stroke-width: 1.0;"/><line style="stroke: #A80036; stroke-width: 1.0;" x1="175.5" x2="652.5" y1="861.4219" y2="861.4219"/><text fill="#000000" font-family="sans-serif" font-size="13" lengthAdjust="spacingAndGlyphs" textLength="135" x="182.5" y="856.356">SetRequestInCache()</text><polygon fill="#A80036" points="53,893.5547,43,897.5547,53,901.5547,49,897.5547" style="stroke: #A80036; stroke-width: 1.0;"/><line style="stroke: #A80036; stroke-width: 1.0;" x1="47" x2="164.5" y1="897.5547" y2="897.5547"/><text fill="#000000" font-family="sans-serif" font-size="13" lengthAdjust="spacingAndGlyphs" textLength="59" x="59" y="892.4888">response</text><!--MD5=[741ffbd6693f6775a30b7568524155c3]
@startuml
actor User
actor System
activate System
participant Souin
collections Providers
participant Memory
participant Olric
participant Redis
participant ReverseProxy
System -> ReverseProxy ++ : run()
System -> Souin ++ : main()
Souin -> Providers : Init()
activate Providers
Providers -> Memory ++ : MemoryConnectionFactory()
Providers <- - Memory : *AbstractProvider
Providers -> Olric ++ : OlricConnectionFactory()
Providers <- - Olric : *AbstractProvider
Providers -> Redis ++ : RedisConnectionFactory()
Providers <- - Redis : *AbstractProvider
Souin <- - Providers : AbstractProvider[]
... Waiting for user request ...
loop User requests
  User -> Souin : request
  activate User
  par Request providers content
    Souin -> Memory: GetRequestInCache()
  else
    Souin -> Olric: GetRequestInCache()
  else
    Souin -> Redis: GetRequestInCache()
  else
    Souin -> ReverseProxy: GetRequestInReverseProxy()
  end
  par Response providers content
    Souin <- - Memory: *Response
  else
    Souin <- - Olric: *Response
  else
    Souin <- - Redis: *Response
  else
    Souin <- - ReverseProxy: *Response
    Souin -> Memory: SetRequestInCache()
    Souin -> Olric: SetRequestInCache()
    Souin -> Redis: SetRequestInCache()
  end
Souin -> User : response
deactivate User
end
@enduml

PlantUML version 1.2020.06(Sun Apr 05 12:38:32 GMT 2020)
(GPL source distribution)
Java Runtime: OpenJDK Runtime Environment
JVM: OpenJDK 64-Bit Server VM
Java Version: 14-ea+33
Operating System: Linux
Default Encoding: UTF-8
Language: en
Country: US
--></g></svg>