<?xml version="1.0" encoding="UTF-8" standalone="no"?><svg xmlns="http://www.w3.org/2000/svg" xmlns:xlink="http://www.w3.org/1999/xlink" contentScriptType="application/ecmascript" contentStyleType="text/css" height="819px" preserveAspectRatio="none" style="width:773px;height:819px;" version="1.1" viewBox="0 0 773 819" width="773px" zoomAndPan="magnify"><defs><filter height="300%" id="f1xyaqscs6nm6k" width="300%" x="-1" y="-1"><feGaussianBlur result="blurOut" stdDeviation="2.0"/><feColorMatrix in="blurOut" result="blurOut2" type="matrix" values="0 0 0 0 0 0 0 0 0 0 0 0 0 0 0 0 0 0 .4 0"/><feOffset dx="4.0" dy="4.0" in="blurOut2" result="blurOut3"/><feBlend in="SourceGraphic" in2="blurOut3" mode="normal"/></filter></defs><g><rect fill="#FFFFFF" filter="url(#f1xyaqscs6nm6k)" height="576.5234" style="stroke: #A80036; stroke-width: 1.0;" width="10" x="161.5" y="146.5625"/><rect fill="#FFFFFF" filter="url(#f1xyaqscs6nm6k)" height="518.2578" style="stroke: #A80036; stroke-width: 1.0;" width="10" x="511.5" y="204.8281"/><rect fill="#FFFFFF" filter="url(#f1xyaqscs6nm6k)" height="459.9922" style="stroke: #A80036; stroke-width: 1.0;" width="10" x="586.5" y="263.0938"/><rect fill="#FFFFFF" filter="url(#f1xyaqscs6nm6k)" height="605.6563" style="stroke: #A80036; stroke-width: 1.0;" width="10" x="681" y="117.4297"/><rect fill="#FFFFFF" filter="url(#f1xyaqscs6nm6k)" height="378.7266" style="stroke: #000000; stroke-width: 2.0;" width="749" x="13" y="336.3594"/><rect fill="#FFFFFF" filter="url(#f1xyaqscs6nm6k)" height="108.5313" style="stroke: #000000; stroke-width: 2.0;" width="624" x="128" y="389.625"/><rect fill="#FFFFFF" height="31.1328" style="stroke: none; stroke-width: 1.0;" width="624" x="128" y="435.8906"/><rect fill="#FFFFFF" height="31.1328" style="stroke: none; stroke-width: 1.0;" width="624" x="128" y="467.0234"/><rect fill="#FFFFFF" filter="url(#f1xyaqscs6nm6k)" height="166.7969" style="stroke: #000000; stroke-width: 2.0;" width="624" x="128" y="512.1563"/><rect fill="#FFFFFF" height="31.1328" style="stroke: none; stroke-width: 1.0;" width="624" x="128" y="558.4219"/><rect fill="#FFFFFF" height="89.3984" style="stroke: none; stroke-width: 1.0;" width="624" x="128" y="589.5547"/><line style="stroke: #A80036; stroke-width: 1.0; stroke-dasharray: 5.0,5.0;" x1="42" x2="42" y1="86.2969" y2="732.0859"/><line style="stroke: #A80036; stroke-width: 1.0; stroke-dasharray: 5.0,5.0;" x1="99" x2="99" y1="86.2969" y2="732.0859"/><line style="stroke: #A80036; stroke-width: 1.0; stroke-dasharray: 5.0,5.0;" x1="166" x2="166" y1="86.2969" y2="732.0859"/><line style="stroke: #A80036; stroke-width: 1.0; stroke-dasharray: 5.0,5.0;" x1="311.5" x2="311.5" y1="86.2969" y2="732.0859"/><line style="stroke: #A80036; stroke-width: 1.0; stroke-dasharray: 5.0,5.0;" x1="516" x2="516" y1="86.2969" y2="732.0859"/><line style="stroke: #A80036; stroke-width: 1.0; stroke-dasharray: 5.0,5.0;" x1="591" x2="591" y1="86.2969" y2="732.0859"/><line style="stroke: #A80036; stroke-width: 1.0; stroke-dasharray: 5.0,5.0;" x1="686" x2="686" y1="86.2969" y2="732.0859"/><text fill="#000000" font-family="sans-serif" font-size="14" lengthAdjust="spacingAndGlyphs" textLength="32" x="23" y="82.9951">User</text><ellipse cx="42" cy="13" fill="#FEFECE" filter="url(#f1xyaqscs6nm6k)" rx="8" ry="8" style="stroke: #A80036; stroke-width: 2.0;"/><path d="M42,21 L42,48 M29,29 L55,29 M42,48 L29,63 M42,48 L55,63 " fill="none" filter="url(#f1xyaqscs6nm6k)" style="stroke: #A80036; stroke-width: 2.0;"/><text fill="#000000" font-family="sans-serif" font-size="14" lengthAdjust="spacingAndGlyphs" textLength="32" x="23" y="744.0811">User</text><ellipse cx="42" cy="757.3828" fill="#FEFECE" filter="url(#f1xyaqscs6nm6k)" rx="8" ry="8" style="stroke: #A80036; stroke-width: 2.0;"/><path d="M42,765.3828 L42,792.3828 M29,773.3828 L55,773.3828 M42,792.3828 L29,807.3828 M42,792.3828 L55,807.3828 " fill="none" filter="url(#f1xyaqscs6nm6k)" style="stroke: #A80036; stroke-width: 2.0;"/><text fill="#000000" font-family="sans-serif" font-size="14" lengthAdjust="spacingAndGlyphs" textLength="51" x="71" y="82.9951">System</text><ellipse cx="99.5" cy="13" fill="#FEFECE" filter="url(#f1xyaqscs6nm6k)" rx="8" ry="8" style="stroke: #A80036; stroke-width: 2.0;"/><path d="M99.5,21 L99.5,48 M86.5,29 L112.5,29 M99.5,48 L86.5,63 M99.5,48 L112.5,63 " fill="none" filter="url(#f1xyaqscs6nm6k)" style="stroke: #A80036; stroke-width: 2.0;"/><text fill="#000000" font-family="sans-serif" font-size="14" lengthAdjust="spacingAndGlyphs" textLength="51" x="71" y="744.0811">System</text><ellipse cx="99.5" cy="757.3828" fill="#FEFECE" filter="url(#f1xyaqscs6nm6k)" rx="8" ry="8" style="stroke: #A80036; stroke-width: 2.0;"/><path d="M99.5,765.3828 L99.5,792.3828 M86.5,773.3828 L112.5,773.3828 M99.5,792.3828 L86.5,807.3828 M99.5,792.3828 L112.5,807.3828 " fill="none" filter="url(#f1xyaqscs6nm6k)" style="stroke: #A80036; stroke-width: 2.0;"/><rect fill="#FEFECE" filter="url(#f1xyaqscs6nm6k)" height="30.2969" style="stroke: #A80036; stroke-width: 1.5;" width="53" x="138" y="51"/><text fill="#000000" font-family="sans-serif" font-size="14" lengthAdjust="spacingAndGlyphs" textLength="39" x="145" y="70.9951">Souin</text><rect fill="#FEFECE" filter="url(#f1xyaqscs6nm6k)" height="30.2969" style="stroke: #A80036; stroke-width: 1.5;" width="53" x="138" y="731.0859"/><text fill="#000000" font-family="sans-serif" font-size="14" lengthAdjust="spacingAndGlyphs" textLength="39" x="145" y="751.0811">Souin</text><rect fill="#FEFECE" filter="url(#f1xyaqscs6nm6k)" height="30.2969" style="stroke: #A80036; stroke-width: 1.5;" width="78" x="272.5" y="47"/><rect fill="#FEFECE" filter="url(#f1xyaqscs6nm6k)" height="30.2969" style="stroke: #A80036; stroke-width: 1.5;" width="78" x="268.5" y="51"/><text fill="#000000" font-family="sans-serif" font-size="14" lengthAdjust="spacingAndGlyphs" textLength="64" x="275.5" y="70.9951">Providers</text><rect fill="#FEFECE" filter="url(#f1xyaqscs6nm6k)" height="30.2969" style="stroke: #A80036; stroke-width: 1.5;" width="78" x="272.5" y="731.0859"/><rect fill="#FEFECE" filter="url(#f1xyaqscs6nm6k)" height="30.2969" style="stroke: #A80036; stroke-width: 1.5;" width="78" x="268.5" y="735.0859"/><text fill="#000000" font-family="sans-serif" font-size="14" lengthAdjust="spacingAndGlyphs" textLength="64" x="275.5" y="755.0811">Providers</text><rect fill="#FEFECE" filter="url(#f1xyaqscs6nm6k)" height="30.2969" style="stroke: #A80036; stroke-width: 1.5;" width="69" x="480" y="51"/><text fill="#000000" font-family="sans-serif" font-size="14" lengthAdjust="spacingAndGlyphs" textLength="55" x="487" y="70.9951">Memory</text><rect fill="#FEFECE" filter="url(#f1xyaqscs6nm6k)" height="30.2969" style="stroke: #A80036; stroke-width: 1.5;" width="69" x="480" y="731.0859"/><text fill="#000000" font-family="sans-serif" font-size="14" lengthAdjust="spacingAndGlyphs" textLength="55" x="487" y="751.0811">Memory</text><rect fill="#FEFECE" filter="url(#f1xyaqscs6nm6k)" height="30.2969" style="stroke: #A80036; stroke-width: 1.5;" width="53" x="563" y="51"/><text fill="#000000" font-family="sans-serif" font-size="14" lengthAdjust="spacingAndGlyphs" textLength="39" x="570" y="70.9951">Redis</text><rect fill="#FEFECE" filter="url(#f1xyaqscs6nm6k)" height="30.2969" style="stroke: #A80036; stroke-width: 1.5;" width="53" x="563" y="731.0859"/><text fill="#000000" font-family="sans-serif" font-size="14" lengthAdjust="spacingAndGlyphs" textLength="39" x="570" y="751.0811">Redis</text><rect fill="#FEFECE" filter="url(#f1xyaqscs6nm6k)" height="30.2969" style="stroke: #A80036; stroke-width: 1.5;" width="108" x="630" y="51"/><text fill="#000000" font-family="sans-serif" font-size="14" lengthAdjust="spacingAndGlyphs" textLength="94" x="637" y="70.9951">ReverseProxy</text><rect fill="#FEFECE" filter="url(#f1xyaqscs6nm6k)" height="30.2969" style="stroke: #A80036; stroke-width: 1.5;" width="108" x="630" y="731.0859"/><text fill="#000000" font-family="sans-serif" font-size="14" lengthAdjust="spacingAndGlyphs" textLength="94" x="637" y="751.0811">ReverseProxy</text><rect fill="#FFFFFF" filter="url(#f1xyaqscs6nm6k)" height="576.5234" style="stroke: #A80036; stroke-width: 1.0;" width="10" x="161.5" y="146.5625"/><rect fill="#FFFFFF" filter="url(#f1xyaqscs6nm6k)" height="518.2578" style="stroke: #A80036; stroke-width: 1.0;" width="10" x="511.5" y="204.8281"/><rect fill="#FFFFFF" filter="url(#f1xyaqscs6nm6k)" height="459.9922" style="stroke: #A80036; stroke-width: 1.0;" width="10" x="586.5" y="263.0938"/><rect fill="#FFFFFF" filter="url(#f1xyaqscs6nm6k)" height="605.6563" style="stroke: #A80036; stroke-width: 1.0;" width="10" x="681" y="117.4297"/><polygon fill="#A80036" points="669,113.4297,679,117.4297,669,121.4297,673,117.4297" style="stroke: #A80036; stroke-width: 1.0;"/><line style="stroke: #A80036; stroke-width: 1.0;" x1="99.5" x2="675" y1="117.4297" y2="117.4297"/><text fill="#000000" font-family="sans-serif" font-size="13" lengthAdjust="spacingAndGlyphs" textLength="31" x="106.5" y="112.3638">run()</text><polygon fill="#A80036" points="149.5,142.5625,159.5,146.5625,149.5,150.5625,153.5,146.5625" style="stroke: #A80036; stroke-width: 1.0;"/><line style="stroke: #A80036; stroke-width: 1.0;" x1="99.5" x2="155.5" y1="146.5625" y2="146.5625"/><text fill="#000000" font-family="sans-serif" font-size="13" lengthAdjust="spacingAndGlyphs" textLength="42" x="106.5" y="141.4966">main()</text><polygon fill="#A80036" points="299.5,171.6953,309.5,175.6953,299.5,179.6953,303.5,175.6953" style="stroke: #A80036; stroke-width: 1.0;"/><line style="stroke: #A80036; stroke-width: 1.0;" x1="171.5" x2="305.5" y1="175.6953" y2="175.6953"/><text fill="#000000" font-family="sans-serif" font-size="13" lengthAdjust="spacingAndGlyphs" textLength="29" x="178.5" y="170.6294">Init()</text><polygon fill="#A80036" points="499.5,200.8281,509.5,204.8281,499.5,208.8281,503.5,204.8281" style="stroke: #A80036; stroke-width: 1.0;"/><line style="stroke: #A80036; stroke-width: 1.0;" x1="311.5" x2="505.5" y1="204.8281" y2="204.8281"/><text fill="#000000" font-family="sans-serif" font-size="13" lengthAdjust="spacingAndGlyphs" textLength="181" x="318.5" y="199.7622">MemoryConnectionFactory()</text><polygon fill="#A80036" points="322.5,229.9609,312.5,233.9609,322.5,237.9609,318.5,233.9609" style="stroke: #A80036; stroke-width: 1.0;"/><line style="stroke: #A80036; stroke-width: 1.0; stroke-dasharray: 2.0,2.0;" x1="316.5" x2="510.5" y1="233.9609" y2="233.9609"/><ellipse cx="334" cy="224.4609" fill="#000000" rx="2.5" ry="2.5" style="stroke: #000000; stroke-width: 0.0;"/><text fill="#000000" font-family="sans-serif" font-size="13" lengthAdjust="spacingAndGlyphs" textLength="106" x="339.5" y="228.895">AbstractProvider</text><polygon fill="#A80036" points="574.5,259.0938,584.5,263.0938,574.5,267.0938,578.5,263.0938" style="stroke: #A80036; stroke-width: 1.0;"/><line style="stroke: #A80036; stroke-width: 1.0;" x1="311.5" x2="580.5" y1="263.0938" y2="263.0938"/><text fill="#000000" font-family="sans-serif" font-size="13" lengthAdjust="spacingAndGlyphs" textLength="163" x="318.5" y="258.0278">RedisConnectionFactory()</text><polygon fill="#A80036" points="322.5,288.2266,312.5,292.2266,322.5,296.2266,318.5,292.2266" style="stroke: #A80036; stroke-width: 1.0;"/><line style="stroke: #A80036; stroke-width: 1.0; stroke-dasharray: 2.0,2.0;" x1="316.5" x2="585.5" y1="292.2266" y2="292.2266"/><ellipse cx="334" cy="282.7266" fill="#000000" rx="2.5" ry="2.5" style="stroke: #000000; stroke-width: 0.0;"/><text fill="#000000" font-family="sans-serif" font-size="13" lengthAdjust="spacingAndGlyphs" textLength="106" x="339.5" y="287.1606">AbstractProvider</text><polygon fill="#A80036" points="182.5,317.3594,172.5,321.3594,182.5,325.3594,178.5,321.3594" style="stroke: #A80036; stroke-width: 1.0;"/><line style="stroke: #A80036; stroke-width: 1.0; stroke-dasharray: 2.0,2.0;" x1="176.5" x2="310.5" y1="321.3594" y2="321.3594"/><text fill="#000000" font-family="sans-serif" font-size="13" lengthAdjust="spacingAndGlyphs" textLength="116" x="188.5" y="316.2935">AbstractProvider[]</text><path d="M13,336.3594 L90,336.3594 L90,343.3594 L80,353.3594 L13,353.3594 L13,336.3594 " fill="#EEEEEE" style="stroke: #000000; stroke-width: 1.0;"/><rect fill="none" height="378.7266" style="stroke: #000000; stroke-width: 2.0;" width="749" x="13" y="336.3594"/><text fill="#000000" font-family="sans-serif" font-size="13" font-weight="bold" lengthAdjust="spacingAndGlyphs" textLength="32" x="28" y="349.4263">loop</text><text fill="#000000" font-family="sans-serif" font-size="11" font-weight="bold" lengthAdjust="spacingAndGlyphs" textLength="99" x="105" y="348.5698">[User requests]</text><polygon fill="#A80036" points="149.5,370.625,159.5,374.625,149.5,378.625,153.5,374.625" style="stroke: #A80036; stroke-width: 1.0;"/><line style="stroke: #A80036; stroke-width: 1.0;" x1="42" x2="155.5" y1="374.625" y2="374.625"/><text fill="#000000" font-family="sans-serif" font-size="13" lengthAdjust="spacingAndGlyphs" textLength="49" x="49" y="369.5591">request</text><path d="M128,389.625 L198,389.625 L198,396.625 L188,406.625 L128,406.625 L128,389.625 " fill="#EEEEEE" style="stroke: #000000; stroke-width: 1.0;"/><rect fill="none" height="108.5313" style="stroke: #000000; stroke-width: 2.0;" width="624" x="128" y="389.625"/><text fill="#000000" font-family="sans-serif" font-size="13" font-weight="bold" lengthAdjust="spacingAndGlyphs" textLength="25" x="143" y="402.6919">par</text><text fill="#000000" font-family="sans-serif" font-size="11" font-weight="bold" lengthAdjust="spacingAndGlyphs" textLength="179" x="213" y="401.8354">[Request providers content]</text><polygon fill="#A80036" points="499.5,423.8906,509.5,427.8906,499.5,431.8906,503.5,427.8906" style="stroke: #A80036; stroke-width: 1.0;"/><line style="stroke: #A80036; stroke-width: 1.0;" x1="171.5" x2="505.5" y1="427.8906" y2="427.8906"/><text fill="#000000" font-family="sans-serif" font-size="13" lengthAdjust="spacingAndGlyphs" textLength="136" x="178.5" y="422.8247">GetRequestInCache()</text><line style="stroke: #000000; stroke-width: 1.0; stroke-dasharray: 2.0,2.0;" x1="128" x2="752" y1="436.8906" y2="436.8906"/><polygon fill="#A80036" points="574.5,455.0234,584.5,459.0234,574.5,463.0234,578.5,459.0234" style="stroke: #A80036; stroke-width: 1.0;"/><line style="stroke: #A80036; stroke-width: 1.0;" x1="171.5" x2="580.5" y1="459.0234" y2="459.0234"/><text fill="#000000" font-family="sans-serif" font-size="13" lengthAdjust="spacingAndGlyphs" textLength="136" x="178.5" y="453.9575">GetRequestInCache()</text><line style="stroke: #000000; stroke-width: 1.0; stroke-dasharray: 2.0,2.0;" x1="128" x2="752" y1="468.0234" y2="468.0234"/><polygon fill="#A80036" points="669,486.1563,679,490.1563,669,494.1563,673,490.1563" style="stroke: #A80036; stroke-width: 1.0;"/><line style="stroke: #A80036; stroke-width: 1.0;" x1="171.5" x2="675" y1="490.1563" y2="490.1563"/><text fill="#000000" font-family="sans-serif" font-size="13" lengthAdjust="spacingAndGlyphs" textLength="182" x="178.5" y="485.0903">GetRequestInReverseProxy()</text><path d="M128,512.1563 L198,512.1563 L198,519.1563 L188,529.1563 L128,529.1563 L128,512.1563 " fill="#EEEEEE" style="stroke: #000000; stroke-width: 1.0;"/><rect fill="none" height="166.7969" style="stroke: #000000; stroke-width: 2.0;" width="624" x="128" y="512.1563"/><text fill="#000000" font-family="sans-serif" font-size="13" font-weight="bold" lengthAdjust="spacingAndGlyphs" textLength="25" x="143" y="525.2231">par</text><text fill="#000000" font-family="sans-serif" font-size="11" font-weight="bold" lengthAdjust="spacingAndGlyphs" textLength="189" x="213" y="524.3667">[Response providers content]</text><polygon fill="#A80036" points="182.5,546.4219,172.5,550.4219,182.5,554.4219,178.5,550.4219" style="stroke: #A80036; stroke-width: 1.0;"/><line style="stroke: #A80036; stroke-width: 1.0; stroke-dasharray: 2.0,2.0;" x1="176.5" x2="510.5" y1="550.4219" y2="550.4219"/><ellipse cx="194" cy="540.9219" fill="#000000" rx="2.5" ry="2.5" style="stroke: #000000; stroke-width: 0.0;"/><text fill="#000000" font-family="sans-serif" font-size="13" lengthAdjust="spacingAndGlyphs" textLength="62" x="199.5" y="545.356">Response</text><line style="stroke: #000000; stroke-width: 1.0; stroke-dasharray: 2.0,2.0;" x1="128" x2="752" y1="559.4219" y2="559.4219"/><polygon fill="#A80036" points="182.5,577.5547,172.5,581.5547,182.5,585.5547,178.5,581.5547" style="stroke: #A80036; stroke-width: 1.0;"/><line style="stroke: #A80036; stroke-width: 1.0; stroke-dasharray: 2.0,2.0;" x1="176.5" x2="585.5" y1="581.5547" y2="581.5547"/><ellipse cx="194" cy="572.0547" fill="#000000" rx="2.5" ry="2.5" style="stroke: #000000; stroke-width: 0.0;"/><text fill="#000000" font-family="sans-serif" font-size="13" lengthAdjust="spacingAndGlyphs" textLength="62" x="199.5" y="576.4888">Response</text><line style="stroke: #000000; stroke-width: 1.0; stroke-dasharray: 2.0,2.0;" x1="128" x2="752" y1="590.5547" y2="590.5547"/><polygon fill="#A80036" points="182.5,608.6875,172.5,612.6875,182.5,616.6875,178.5,612.6875" style="stroke: #A80036; stroke-width: 1.0;"/><line style="stroke: #A80036; stroke-width: 1.0; stroke-dasharray: 2.0,2.0;" x1="176.5" x2="680" y1="612.6875" y2="612.6875"/><ellipse cx="194" cy="603.1875" fill="#000000" rx="2.5" ry="2.5" style="stroke: #000000; stroke-width: 0.0;"/><text fill="#000000" font-family="sans-serif" font-size="13" lengthAdjust="spacingAndGlyphs" textLength="62" x="199.5" y="607.6216">Response</text><polygon fill="#A80036" points="499.5,637.8203,509.5,641.8203,499.5,645.8203,503.5,641.8203" style="stroke: #A80036; stroke-width: 1.0;"/><line style="stroke: #A80036; stroke-width: 1.0;" x1="171.5" x2="505.5" y1="641.8203" y2="641.8203"/><text fill="#000000" font-family="sans-serif" font-size="13" lengthAdjust="spacingAndGlyphs" textLength="135" x="178.5" y="636.7544">SetRequestInCache()</text><polygon fill="#A80036" points="574.5,666.9531,584.5,670.9531,574.5,674.9531,578.5,670.9531" style="stroke: #A80036; stroke-width: 1.0;"/><line style="stroke: #A80036; stroke-width: 1.0;" x1="171.5" x2="580.5" y1="670.9531" y2="670.9531"/><text fill="#000000" font-family="sans-serif" font-size="13" lengthAdjust="spacingAndGlyphs" textLength="135" x="178.5" y="665.8872">SetRequestInCache()</text><polygon fill="#A80036" points="53,703.0859,43,707.0859,53,711.0859,49,707.0859" style="stroke: #A80036; stroke-width: 1.0;"/><line style="stroke: #A80036; stroke-width: 1.0;" x1="47" x2="160.5" y1="707.0859" y2="707.0859"/><text fill="#000000" font-family="sans-serif" font-size="13" lengthAdjust="spacingAndGlyphs" textLength="59" x="59" y="702.02">response</text><!--MD5=[e57c2cd945a439b91632bc7f40d5e234]
@startuml
actor User
actor System
participant Souin
collections Providers
participant Memory
participant Redis
participant ReverseProxy
System -> ReverseProxy ++ : run()
System -> Souin ++ : main()
Souin -> Providers : Init()
Providers -> Memory ++ : MemoryConnectionFactory()
Providers <- - Memory : *AbstractProvider
Providers -> Redis ++ : RedisConnectionFactory()
Providers <- - Redis : *AbstractProvider
Souin <- - Providers : AbstractProvider[]
loop User requests
  User -> Souin : request
  par Request providers content
    Souin -> Memory: GetRequestInCache()
  else
    Souin -> Redis: GetRequestInCache()
  else
    Souin -> ReverseProxy: GetRequestInReverseProxy()
  end
  par Response providers content
    Souin <- - Memory: *Response
  else
    Souin <- - Redis: *Response
  else
    Souin <- - ReverseProxy: *Response
    Souin -> Memory: SetRequestInCache()
    Souin -> Redis: SetRequestInCache()
  end
Souin -> User : response
end
@enduml

PlantUML version 1.2019.11(Sun Sep 22 10:02:15 GMT 2019)
(GPL source distribution)
Java Runtime: OpenJDK Runtime Environment
JVM: OpenJDK 64-Bit Server VM
Java Version: 14-ea+15
Operating System: Linux
Default Encoding: UTF-8
Language: en
Country: US
--></g></svg>