<?xml version="1.0" encoding="UTF-8" standalone="no"?><svg xmlns="http://www.w3.org/2000/svg" xmlns:xlink="http://www.w3.org/1999/xlink" contentScriptType="application/ecmascript" contentStyleType="text/css" height="617px" preserveAspectRatio="none" style="width:570px;height:617px;" version="1.1" viewBox="0 0 570 617" width="570px" zoomAndPan="magnify"><defs><filter height="300%" id="f1e4i2wbmpt2em" width="300%" x="-1" y="-1"><feGaussianBlur result="blurOut" stdDeviation="2.0"/><feColorMatrix in="blurOut" result="blurOut2" type="matrix" values="0 0 0 0 0 0 0 0 0 0 0 0 0 0 0 0 0 0 .4 0"/><feOffset dx="4.0" dy="4.0" in="blurOut2" result="blurOut3"/><feBlend in="SourceGraphic" in2="blurOut3" mode="normal"/></filter></defs><g><rect fill="#FFFFFF" filter="url(#f1e4i2wbmpt2em)" height="205.9297" style="stroke: #A80036; stroke-width: 1.0;" width="10" x="37" y="298.8984"/><rect fill="#FFFFFF" filter="url(#f1e4i2wbmpt2em)" height="116.5313" style="stroke: #FFFFFF; stroke-width: 1.0;" width="10" x="94.5" y="96.2969"/><line style="stroke: #A80036; stroke-width: 1.0;" x1="94.5" x2="94.5" y1="96.2969" y2="212.8281"/><line style="stroke: #A80036; stroke-width: 1.0;" x1="104.5" x2="104.5" y1="96.2969" y2="212.8281"/><line style="stroke: #A80036; stroke-width: 1.0;" x1="94.5" x2="104.5" y1="96.2969" y2="96.2969"/><rect fill="#FFFFFF" filter="url(#f1e4i2wbmpt2em)" height="267.1953" style="stroke: #FFFFFF; stroke-width: 1.0;" width="10" x="94.5" y="253.6328"/><line style="stroke: #A80036; stroke-width: 1.0;" x1="94.5" x2="94.5" y1="253.6328" y2="520.8281"/><line style="stroke: #A80036; stroke-width: 1.0;" x1="104.5" x2="104.5" y1="253.6328" y2="520.8281"/><rect fill="#FFFFFF" filter="url(#f1e4i2wbmpt2em)" height="66.2656" style="stroke: #FFFFFF; stroke-width: 1.0;" width="10" x="165.5" y="146.5625"/><line style="stroke: #A80036; stroke-width: 1.0;" x1="165.5" x2="165.5" y1="146.5625" y2="212.8281"/><line style="stroke: #A80036; stroke-width: 1.0;" x1="175.5" x2="175.5" y1="146.5625" y2="212.8281"/><line style="stroke: #A80036; stroke-width: 1.0;" x1="165.5" x2="175.5" y1="146.5625" y2="146.5625"/><rect fill="#FFFFFF" filter="url(#f1e4i2wbmpt2em)" height="267.1953" style="stroke: #FFFFFF; stroke-width: 1.0;" width="10" x="165.5" y="253.6328"/><line style="stroke: #A80036; stroke-width: 1.0;" x1="165.5" x2="165.5" y1="253.6328" y2="520.8281"/><line style="stroke: #A80036; stroke-width: 1.0;" x1="175.5" x2="175.5" y1="253.6328" y2="520.8281"/><rect fill="#FFFFFF" filter="url(#f1e4i2wbmpt2em)" height="37.1328" style="stroke: #FFFFFF; stroke-width: 1.0;" width="10" x="375.5" y="175.6953"/><line style="stroke: #A80036; stroke-width: 1.0;" x1="375.5" x2="375.5" y1="175.6953" y2="212.8281"/><line style="stroke: #A80036; stroke-width: 1.0;" x1="385.5" x2="385.5" y1="175.6953" y2="212.8281"/><line style="stroke: #A80036; stroke-width: 1.0;" x1="375.5" x2="385.5" y1="175.6953" y2="175.6953"/><rect fill="#FFFFFF" filter="url(#f1e4i2wbmpt2em)" height="267.1953" style="stroke: #FFFFFF; stroke-width: 1.0;" width="10" x="375.5" y="253.6328"/><line style="stroke: #A80036; stroke-width: 1.0;" x1="375.5" x2="375.5" y1="253.6328" y2="520.8281"/><line style="stroke: #A80036; stroke-width: 1.0;" x1="385.5" x2="385.5" y1="253.6328" y2="520.8281"/><rect fill="#FFFFFF" filter="url(#f1e4i2wbmpt2em)" height="95.3984" style="stroke: #FFFFFF; stroke-width: 1.0;" width="10" x="478" y="117.4297"/><line style="stroke: #A80036; stroke-width: 1.0;" x1="478" x2="478" y1="117.4297" y2="212.8281"/><line style="stroke: #A80036; stroke-width: 1.0;" x1="488" x2="488" y1="117.4297" y2="212.8281"/><line style="stroke: #A80036; stroke-width: 1.0;" x1="478" x2="488" y1="117.4297" y2="117.4297"/><rect fill="#FFFFFF" filter="url(#f1e4i2wbmpt2em)" height="267.1953" style="stroke: #FFFFFF; stroke-width: 1.0;" width="10" x="478" y="253.6328"/><line style="stroke: #A80036; stroke-width: 1.0;" x1="478" x2="478" y1="253.6328" y2="520.8281"/><line style="stroke: #A80036; stroke-width: 1.0;" x1="488" x2="488" y1="253.6328" y2="520.8281"/><rect fill="#FFFFFF" filter="url(#f1e4i2wbmpt2em)" height="252.1953" style="stroke: #000000; stroke-width: 2.0;" width="546" x="13" y="260.6328"/><rect fill="#FFFFFF" filter="url(#f1e4i2wbmpt2em)" height="104.5313" style="stroke: #000000; stroke-width: 2.0;" width="417" x="132" y="372.1641"/><line style="stroke: #A80036; stroke-width: 1.0;" x1="42" x2="42" y1="86.2969" y2="212.8281"/><line style="stroke: #A80036; stroke-width: 1.0; stroke-dasharray: 1.0,4.0;" x1="42" x2="42" y1="212.8281" y2="253.6328"/><line style="stroke: #A80036; stroke-width: 1.0;" x1="42" x2="42" y1="253.6328" y2="529.8281"/><line style="stroke: #A80036; stroke-width: 1.0;" x1="99" x2="99" y1="86.2969" y2="212.8281"/><line style="stroke: #A80036; stroke-width: 1.0; stroke-dasharray: 1.0,4.0;" x1="99" x2="99" y1="212.8281" y2="253.6328"/><line style="stroke: #A80036; stroke-width: 1.0;" x1="99" x2="99" y1="253.6328" y2="529.8281"/><line style="stroke: #A80036; stroke-width: 1.0;" x1="170" x2="170" y1="86.2969" y2="212.8281"/><line style="stroke: #A80036; stroke-width: 1.0; stroke-dasharray: 1.0,4.0;" x1="170" x2="170" y1="212.8281" y2="253.6328"/><line style="stroke: #A80036; stroke-width: 1.0;" x1="170" x2="170" y1="253.6328" y2="529.8281"/><line style="stroke: #A80036; stroke-width: 1.0;" x1="380" x2="380" y1="86.2969" y2="212.8281"/><line style="stroke: #A80036; stroke-width: 1.0; stroke-dasharray: 1.0,4.0;" x1="380" x2="380" y1="212.8281" y2="253.6328"/><line style="stroke: #A80036; stroke-width: 1.0;" x1="380" x2="380" y1="253.6328" y2="529.8281"/><line style="stroke: #A80036; stroke-width: 1.0;" x1="483" x2="483" y1="86.2969" y2="212.8281"/><line style="stroke: #A80036; stroke-width: 1.0; stroke-dasharray: 1.0,4.0;" x1="483" x2="483" y1="212.8281" y2="253.6328"/><line style="stroke: #A80036; stroke-width: 1.0;" x1="483" x2="483" y1="253.6328" y2="529.8281"/><text fill="#000000" font-family="sans-serif" font-size="14" lengthAdjust="spacingAndGlyphs" textLength="32" x="23" y="82.9951">User</text><ellipse cx="42" cy="13" fill="#FEFECE" filter="url(#f1e4i2wbmpt2em)" rx="8" ry="8" style="stroke: #A80036; stroke-width: 2.0;"/><path d="M42,21 L42,48 M29,29 L55,29 M42,48 L29,63 M42,48 L55,63 " fill="none" filter="url(#f1e4i2wbmpt2em)" style="stroke: #A80036; stroke-width: 2.0;"/><text fill="#000000" font-family="sans-serif" font-size="14" lengthAdjust="spacingAndGlyphs" textLength="32" x="23" y="541.8232">User</text><ellipse cx="42" cy="555.125" fill="#FEFECE" filter="url(#f1e4i2wbmpt2em)" rx="8" ry="8" style="stroke: #A80036; stroke-width: 2.0;"/><path d="M42,563.125 L42,590.125 M29,571.125 L55,571.125 M42,590.125 L29,605.125 M42,590.125 L55,605.125 " fill="none" filter="url(#f1e4i2wbmpt2em)" style="stroke: #A80036; stroke-width: 2.0;"/><text fill="#000000" font-family="sans-serif" font-size="14" lengthAdjust="spacingAndGlyphs" textLength="51" x="71" y="82.9951">System</text><ellipse cx="99.5" cy="13" fill="#FEFECE" filter="url(#f1e4i2wbmpt2em)" rx="8" ry="8" style="stroke: #A80036; stroke-width: 2.0;"/><path d="M99.5,21 L99.5,48 M86.5,29 L112.5,29 M99.5,48 L86.5,63 M99.5,48 L112.5,63 " fill="none" filter="url(#f1e4i2wbmpt2em)" style="stroke: #A80036; stroke-width: 2.0;"/><text fill="#000000" font-family="sans-serif" font-size="14" lengthAdjust="spacingAndGlyphs" textLength="51" x="71" y="541.8232">System</text><ellipse cx="99.5" cy="555.125" fill="#FEFECE" filter="url(#f1e4i2wbmpt2em)" rx="8" ry="8" style="stroke: #A80036; stroke-width: 2.0;"/><path d="M99.5,563.125 L99.5,590.125 M86.5,571.125 L112.5,571.125 M99.5,590.125 L86.5,605.125 M99.5,590.125 L112.5,605.125 " fill="none" filter="url(#f1e4i2wbmpt2em)" style="stroke: #A80036; stroke-width: 2.0;"/><rect fill="#FEFECE" filter="url(#f1e4i2wbmpt2em)" height="30.2969" style="stroke: #A80036; stroke-width: 1.5;" width="53" x="142" y="51"/><text fill="#000000" font-family="sans-serif" font-size="14" lengthAdjust="spacingAndGlyphs" textLength="39" x="149" y="70.9951">Souin</text><rect fill="#FEFECE" filter="url(#f1e4i2wbmpt2em)" height="30.2969" style="stroke: #A80036; stroke-width: 1.5;" width="53" x="142" y="528.8281"/><text fill="#000000" font-family="sans-serif" font-size="14" lengthAdjust="spacingAndGlyphs" textLength="39" x="149" y="548.8232">Souin</text><rect fill="#FEFECE" filter="url(#f1e4i2wbmpt2em)" height="30.2969" style="stroke: #A80036; stroke-width: 1.5;" width="69" x="344" y="51"/><text fill="#000000" font-family="sans-serif" font-size="14" lengthAdjust="spacingAndGlyphs" textLength="55" x="351" y="70.9951">Memory</text><rect fill="#FEFECE" filter="url(#f1e4i2wbmpt2em)" height="30.2969" style="stroke: #A80036; stroke-width: 1.5;" width="69" x="344" y="528.8281"/><text fill="#000000" font-family="sans-serif" font-size="14" lengthAdjust="spacingAndGlyphs" textLength="55" x="351" y="548.8232">Memory</text><rect fill="#FEFECE" filter="url(#f1e4i2wbmpt2em)" height="30.2969" style="stroke: #A80036; stroke-width: 1.5;" width="108" x="427" y="51"/><text fill="#000000" font-family="sans-serif" font-size="14" lengthAdjust="spacingAndGlyphs" textLength="94" x="434" y="70.9951">ReverseProxy</text><rect fill="#FEFECE" filter="url(#f1e4i2wbmpt2em)" height="30.2969" style="stroke: #A80036; stroke-width: 1.5;" width="108" x="427" y="528.8281"/><text fill="#000000" font-family="sans-serif" font-size="14" lengthAdjust="spacingAndGlyphs" textLength="94" x="434" y="548.8232">ReverseProxy</text><rect fill="#FFFFFF" filter="url(#f1e4i2wbmpt2em)" height="205.9297" style="stroke: #A80036; stroke-width: 1.0;" width="10" x="37" y="298.8984"/><rect fill="#FFFFFF" filter="url(#f1e4i2wbmpt2em)" height="116.5313" style="stroke: #FFFFFF; stroke-width: 1.0;" width="10" x="94.5" y="96.2969"/><line style="stroke: #A80036; stroke-width: 1.0;" x1="94.5" x2="94.5" y1="96.2969" y2="212.8281"/><line style="stroke: #A80036; stroke-width: 1.0;" x1="104.5" x2="104.5" y1="96.2969" y2="212.8281"/><line style="stroke: #A80036; stroke-width: 1.0;" x1="94.5" x2="104.5" y1="96.2969" y2="96.2969"/><rect fill="#FFFFFF" filter="url(#f1e4i2wbmpt2em)" height="267.1953" style="stroke: #FFFFFF; stroke-width: 1.0;" width="10" x="94.5" y="253.6328"/><line style="stroke: #A80036; stroke-width: 1.0;" x1="94.5" x2="94.5" y1="253.6328" y2="520.8281"/><line style="stroke: #A80036; stroke-width: 1.0;" x1="104.5" x2="104.5" y1="253.6328" y2="520.8281"/><rect fill="#FFFFFF" filter="url(#f1e4i2wbmpt2em)" height="66.2656" style="stroke: #FFFFFF; stroke-width: 1.0;" width="10" x="165.5" y="146.5625"/><line style="stroke: #A80036; stroke-width: 1.0;" x1="165.5" x2="165.5" y1="146.5625" y2="212.8281"/><line style="stroke: #A80036; stroke-width: 1.0;" x1="175.5" x2="175.5" y1="146.5625" y2="212.8281"/><line style="stroke: #A80036; stroke-width: 1.0;" x1="165.5" x2="175.5" y1="146.5625" y2="146.5625"/><rect fill="#FFFFFF" filter="url(#f1e4i2wbmpt2em)" height="267.1953" style="stroke: #FFFFFF; stroke-width: 1.0;" width="10" x="165.5" y="253.6328"/><line style="stroke: #A80036; stroke-width: 1.0;" x1="165.5" x2="165.5" y1="253.6328" y2="520.8281"/><line style="stroke: #A80036; stroke-width: 1.0;" x1="175.5" x2="175.5" y1="253.6328" y2="520.8281"/><rect fill="#FFFFFF" filter="url(#f1e4i2wbmpt2em)" height="37.1328" style="stroke: #FFFFFF; stroke-width: 1.0;" width="10" x="375.5" y="175.6953"/><line style="stroke: #A80036; stroke-width: 1.0;" x1="375.5" x2="375.5" y1="175.6953" y2="212.8281"/><line style="stroke: #A80036; stroke-width: 1.0;" x1="385.5" x2="385.5" y1="175.6953" y2="212.8281"/><line style="stroke: #A80036; stroke-width: 1.0;" x1="375.5" x2="385.5" y1="175.6953" y2="175.6953"/><rect fill="#FFFFFF" filter="url(#f1e4i2wbmpt2em)" height="267.1953" style="stroke: #FFFFFF; stroke-width: 1.0;" width="10" x="375.5" y="253.6328"/><line style="stroke: #A80036; stroke-width: 1.0;" x1="375.5" x2="375.5" y1="253.6328" y2="520.8281"/><line style="stroke: #A80036; stroke-width: 1.0;" x1="385.5" x2="385.5" y1="253.6328" y2="520.8281"/><rect fill="#FFFFFF" filter="url(#f1e4i2wbmpt2em)" height="95.3984" style="stroke: #FFFFFF; stroke-width: 1.0;" width="10" x="478" y="117.4297"/><line style="stroke: #A80036; stroke-width: 1.0;" x1="478" x2="478" y1="117.4297" y2="212.8281"/><line style="stroke: #A80036; stroke-width: 1.0;" x1="488" x2="488" y1="117.4297" y2="212.8281"/><line style="stroke: #A80036; stroke-width: 1.0;" x1="478" x2="488" y1="117.4297" y2="117.4297"/><rect fill="#FFFFFF" filter="url(#f1e4i2wbmpt2em)" height="267.1953" style="stroke: #FFFFFF; stroke-width: 1.0;" width="10" x="478" y="253.6328"/><line style="stroke: #A80036; stroke-width: 1.0;" x1="478" x2="478" y1="253.6328" y2="520.8281"/><line style="stroke: #A80036; stroke-width: 1.0;" x1="488" x2="488" y1="253.6328" y2="520.8281"/><polygon fill="#A80036" points="466,113.4297,476,117.4297,466,121.4297,470,117.4297" style="stroke: #A80036; stroke-width: 1.0;"/><line style="stroke: #A80036; stroke-width: 1.0;" x1="104.5" x2="472" y1="117.4297" y2="117.4297"/><text fill="#000000" font-family="sans-serif" font-size="13" lengthAdjust="spacingAndGlyphs" textLength="31" x="111.5" y="112.3638">run()</text><polygon fill="#A80036" points="153.5,142.5625,163.5,146.5625,153.5,150.5625,157.5,146.5625" style="stroke: #A80036; stroke-width: 1.0;"/><line style="stroke: #A80036; stroke-width: 1.0;" x1="104.5" x2="159.5" y1="146.5625" y2="146.5625"/><text fill="#000000" font-family="sans-serif" font-size="13" lengthAdjust="spacingAndGlyphs" textLength="42" x="111.5" y="141.4966">main()</text><polygon fill="#A80036" points="363.5,171.6953,373.5,175.6953,363.5,179.6953,367.5,175.6953" style="stroke: #A80036; stroke-width: 1.0;"/><line style="stroke: #A80036; stroke-width: 1.0;" x1="175.5" x2="369.5" y1="175.6953" y2="175.6953"/><text fill="#000000" font-family="sans-serif" font-size="13" lengthAdjust="spacingAndGlyphs" textLength="181" x="182.5" y="170.6294">MemoryConnectionFactory()</text><polygon fill="#A80036" points="186.5,200.8281,176.5,204.8281,186.5,208.8281,182.5,204.8281" style="stroke: #A80036; stroke-width: 1.0;"/><line style="stroke: #A80036; stroke-width: 1.0; stroke-dasharray: 2.0,2.0;" x1="180.5" x2="374.5" y1="204.8281" y2="204.8281"/><text fill="#000000" font-family="sans-serif" font-size="13" lengthAdjust="spacingAndGlyphs" textLength="106" x="192.5" y="199.7622">AbstractProvider</text><text fill="#000000" font-family="sans-serif" font-size="11" lengthAdjust="spacingAndGlyphs" textLength="138" x="193.5" y="237.0386">Waiting for user request</text><path d="M13,260.6328 L90,260.6328 L90,267.6328 L80,277.6328 L13,277.6328 L13,260.6328 " fill="#EEEEEE" style="stroke: #000000; stroke-width: 1.0;"/><rect fill="none" height="252.1953" style="stroke: #000000; stroke-width: 2.0;" width="546" x="13" y="260.6328"/><text fill="#000000" font-family="sans-serif" font-size="13" font-weight="bold" lengthAdjust="spacingAndGlyphs" textLength="32" x="28" y="273.6997">loop</text><text fill="#000000" font-family="sans-serif" font-size="11" font-weight="bold" lengthAdjust="spacingAndGlyphs" textLength="99" x="105" y="272.8433">[User requests]</text><polygon fill="#A80036" points="153.5,294.8984,163.5,298.8984,153.5,302.8984,157.5,298.8984" style="stroke: #A80036; stroke-width: 1.0;"/><line style="stroke: #A80036; stroke-width: 1.0;" x1="47" x2="159.5" y1="298.8984" y2="298.8984"/><text fill="#000000" font-family="sans-serif" font-size="13" lengthAdjust="spacingAndGlyphs" textLength="49" x="54" y="293.8325">request</text><polygon fill="#A80036" points="363.5,324.0313,373.5,328.0313,363.5,332.0313,367.5,328.0313" style="stroke: #A80036; stroke-width: 1.0;"/><line style="stroke: #A80036; stroke-width: 1.0;" x1="175.5" x2="369.5" y1="328.0313" y2="328.0313"/><text fill="#000000" font-family="sans-serif" font-size="13" lengthAdjust="spacingAndGlyphs" textLength="136" x="182.5" y="322.9653">GetRequestInCache()</text><polygon fill="#A80036" points="186.5,353.1641,176.5,357.1641,186.5,361.1641,182.5,357.1641" style="stroke: #A80036; stroke-width: 1.0;"/><line style="stroke: #A80036; stroke-width: 1.0; stroke-dasharray: 2.0,2.0;" x1="180.5" x2="374.5" y1="357.1641" y2="357.1641"/><ellipse cx="198" cy="347.6641" fill="#000000" rx="2.5" ry="2.5" style="stroke: #000000; stroke-width: 0.0;"/><text fill="#000000" font-family="sans-serif" font-size="13" lengthAdjust="spacingAndGlyphs" textLength="62" x="203.5" y="352.0981">Response</text><path d="M132,372.1641 L463,372.1641 L463,379.1641 L453,389.1641 L132,389.1641 L132,372.1641 " fill="#EEEEEE" style="stroke: #000000; stroke-width: 1.0;"/><rect fill="none" height="104.5313" style="stroke: #000000; stroke-width: 2.0;" width="417" x="132" y="372.1641"/><text fill="#000000" font-family="sans-serif" font-size="13" font-weight="bold" lengthAdjust="spacingAndGlyphs" textLength="286" x="147" y="385.231">if the response from cache is not valid</text><polygon fill="#A80036" points="466,406.4297,476,410.4297,466,414.4297,470,410.4297" style="stroke: #A80036; stroke-width: 1.0;"/><line style="stroke: #A80036; stroke-width: 1.0;" x1="175.5" x2="472" y1="410.4297" y2="410.4297"/><text fill="#000000" font-family="sans-serif" font-size="13" lengthAdjust="spacingAndGlyphs" textLength="182" x="182.5" y="405.3638">GetRequestInReverseProxy()</text><polygon fill="#A80036" points="186.5,435.5625,176.5,439.5625,186.5,443.5625,182.5,439.5625" style="stroke: #A80036; stroke-width: 1.0;"/><line style="stroke: #A80036; stroke-width: 1.0; stroke-dasharray: 2.0,2.0;" x1="180.5" x2="477" y1="439.5625" y2="439.5625"/><ellipse cx="198" cy="430.0625" fill="#000000" rx="2.5" ry="2.5" style="stroke: #000000; stroke-width: 0.0;"/><text fill="#000000" font-family="sans-serif" font-size="13" lengthAdjust="spacingAndGlyphs" textLength="62" x="203.5" y="434.4966">Response</text><polygon fill="#A80036" points="363.5,464.6953,373.5,468.6953,363.5,472.6953,367.5,468.6953" style="stroke: #A80036; stroke-width: 1.0;"/><line style="stroke: #A80036; stroke-width: 1.0;" x1="175.5" x2="369.5" y1="468.6953" y2="468.6953"/><text fill="#000000" font-family="sans-serif" font-size="13" lengthAdjust="spacingAndGlyphs" textLength="135" x="182.5" y="463.6294">SetRequestInCache()</text><polygon fill="#A80036" points="53,500.8281,43,504.8281,53,508.8281,49,504.8281" style="stroke: #A80036; stroke-width: 1.0;"/><line style="stroke: #A80036; stroke-width: 1.0;" x1="47" x2="164.5" y1="504.8281" y2="504.8281"/><text fill="#000000" font-family="sans-serif" font-size="13" lengthAdjust="spacingAndGlyphs" textLength="59" x="59" y="499.7622">response</text><!--MD5=[cebd3d6274607e5a8376ae38da39a655]
@startuml
actor User
actor System
activate System
participant Souin
participant Memory
participant ReverseProxy
System -> ReverseProxy ++ : run()
System -> Souin ++ : main()
Souin -> Memory ++ : MemoryConnectionFactory()
Souin <- - Memory : AbstractProvider
... Waiting for user request ...
loop User requests
  User -> Souin : request
  activate User
  Souin -> Memory: GetRequestInCache()
  Souin <- - Memory: *Response
  group if the response from cache is not valid
    Souin -> ReverseProxy: GetRequestInReverseProxy()
    Souin <- - ReverseProxy: *Response
    Souin -> Memory: SetRequestInCache()
  end
Souin -> User : response
deactivate User
end
@enduml

PlantUML version 1.2020.06(Sun Apr 05 12:38:32 GMT 2020)
(GPL source distribution)
Java Runtime: OpenJDK Runtime Environment
JVM: OpenJDK 64-Bit Server VM
Java Version: 14-ea+33
Operating System: Linux
Default Encoding: UTF-8
Language: en
Country: US
--></g></svg>